<?xml version="1.0" encoding="UTF-8"?>
<svg version="1.1" xmlns="http://www.w3.org/2000/svg" width="1772" height="1773">
<path d="M0 0 C584.76 0 1169.52 0 1772 0 C1772 585.09 1772 1170.18 1772 1773 C1187.24 1773 602.48 1773 0 1773 C0 1187.91 0 602.82 0 0 Z " fill="#FFFFFF" transform="translate(0,0)"/>
<path d="M0 0 C2.79233909 3.37456026 4.5548049 7.06164395 6.3359375 11.02734375 C6.65119385 11.71902649 6.9664502 12.41070923 7.29125977 13.12335205 C8.32397502 15.39258802 9.34957868 17.66495986 10.375 19.9375 C11.09942431 21.53376792 11.82420077 23.12987608 12.54931641 24.72583008 C14.70722362 29.48043275 16.85543789 34.23936517 19 39 C19.29535645 39.65556885 19.59071289 40.3111377 19.89501953 40.98657227 C23.06353916 48.02268585 26.21559906 55.066117 29.36430359 62.1111145 C33.12365462 70.51833485 36.90694442 78.9148001 40.6875 87.3125 C41.45321685 89.01366716 42.21892319 90.71483906 42.98461914 92.41601562 C45.32285437 97.61077841 47.66139977 102.80540153 50 108 C51.17527103 110.6105621 52.3505327 113.22112834 53.52558899 115.83178711 C54.30374344 117.5600312 55.0823771 119.28805961 55.86149597 121.01586914 C57.76727498 125.24401308 59.66457782 129.47553905 61.54321289 133.71582031 C64.95224309 141.38922619 68.44022674 148.97191038 72.30078125 156.4296875 C81.94108106 175.26671237 81.94108106 175.26671237 80.50390625 181.23046875 C78.78989989 184.55158644 76.98630262 187.07628646 74.60058594 189.91210938 C71.27895921 194.24501843 68.90283468 199.20905581 66.3125 204 C65.09422507 206.1795381 63.8715358 208.3566144 62.64453125 210.53125 C62.03561035 211.61277344 61.42668945 212.69429687 60.79931641 213.80859375 C57.50387523 219.6536422 54.20126652 225.49462764 50.89575195 231.33398438 C46.9102588 238.37805575 42.95047438 245.43623787 39 252.5 C33.98940497 261.4593421 28.95170949 270.40281974 23.89453125 279.3359375 C19.90963231 286.37946347 15.95010006 293.43690717 12 300.5 C7.51965075 308.51122051 3.02193908 316.5121806 -1.5 324.5 C-8.37372397 336.64410093 -15.18901937 348.82062923 -22 361 C-29.34130716 374.12769874 -36.69588105 387.2472626 -44.10571289 400.33642578 C-48.09058246 407.37975964 -52.04998867 414.43706584 -56 421.5 C-61.01059503 430.4593421 -66.04829051 439.40281974 -71.10546875 448.3359375 C-75.09036769 455.37946347 -79.04989994 462.43690717 -83 469.5 C-88.01059503 478.4593421 -93.04829051 487.40281974 -98.10546875 496.3359375 C-102.09036769 503.37946347 -106.04989994 510.43690717 -110 517.5 C-115.01059503 526.4593421 -120.04829051 535.40281974 -125.10546875 544.3359375 C-129.09036769 551.37946347 -133.04989994 558.43690717 -137 565.5 C-141.48034925 573.51122051 -145.97806092 581.5121806 -150.5 589.5 C-157.37372397 601.64410093 -164.18901937 613.82062923 -171 626 C-178.34130716 639.12769874 -185.69588105 652.2472626 -193.10571289 665.33642578 C-197.09058246 672.37975964 -201.04998867 679.43706584 -205 686.5 C-210.01059503 695.4593421 -215.04829051 704.40281974 -220.10546875 713.3359375 C-224.09036769 720.37946347 -228.04989994 727.43690717 -232 734.5 C-237.01059503 743.4593421 -242.04829051 752.40281974 -247.10546875 761.3359375 C-251.09036769 768.37946347 -255.04989994 775.43690717 -259 782.5 C-263.48034925 790.51122051 -267.97806092 798.5121806 -272.5 806.5 C-279.37372397 818.64410093 -286.18901937 830.82062923 -293 843 C-300.34130716 856.12769874 -307.69588105 869.2472626 -315.10571289 882.33642578 C-319.09058246 889.37975964 -323.04998867 896.43706584 -327 903.5 C-332.01059503 912.4593421 -337.04829051 921.40281974 -342.10546875 930.3359375 C-346.09036769 937.37946347 -350.04989994 944.43690717 -354 951.5 C-359.01059503 960.4593421 -364.04829051 969.40281974 -369.10546875 978.3359375 C-373.09036789 985.37946382 -377.04983673 992.43694226 -381 999.5 C-384.48916871 1005.73772571 -387.9816514 1011.97348698 -391.4921875 1018.19921875 C-392.05454102 1019.19840332 -392.61689453 1020.19758789 -393.19628906 1021.22705078 C-394.30427386 1023.18101002 -395.42322566 1025.12879613 -396.55371094 1027.06982422 C-399.2208035 1031.67051845 -401.64269605 1036.08492387 -403.29052734 1041.15405273 C-405.20662058 1045.09008853 -406.987399 1048.21093086 -411.14968872 1049.84281635 C-413.93484846 1050.50777072 -416.71177682 1051.00849059 -419.53833008 1051.4675293 C-420.62884328 1051.66476687 -421.71935648 1051.86200445 -422.84291553 1052.06521893 C-425.25948245 1052.49885007 -427.67811266 1052.92109215 -430.09836197 1053.33367538 C-434.13403053 1054.02288983 -438.16303441 1054.74359853 -442.19174194 1055.47207642 C-450.66785973 1056.9988539 -459.15133913 1058.48214891 -467.63626838 1059.95905519 C-471.02715579 1060.54960892 -474.41772015 1061.14200664 -477.80829841 1061.73433226 C-485.79820976 1063.13006329 -493.78869106 1064.52249538 -501.77954102 1065.9128418 C-510.00089104 1067.34336244 -518.2211575 1068.77999398 -526.44094819 1070.21944505 C-533.54403782 1071.46309745 -540.64780347 1072.70283375 -547.75211936 1073.93946189 C-551.97661277 1074.67485872 -556.20082935 1075.41176049 -560.42438316 1076.15253639 C-564.37763474 1076.84574578 -568.33170728 1077.53406333 -572.28646469 1078.21862793 C-573.7339636 1078.47003129 -575.1811643 1078.72315886 -576.62803459 1078.97815514 C-578.60530129 1079.32634624 -580.58377753 1079.66764764 -582.56230164 1080.00862122 C-583.66732371 1080.20123441 -584.77234579 1080.3938476 -585.91085339 1080.59229755 C-588.97998453 1080.99735838 -591.90827247 1081.07374647 -595 1081 C-585.75422403 1063.56989666 -576.37925165 1046.20883145 -566.76953125 1028.9765625 C-563.2850096 1022.72442414 -559.83116546 1016.45533916 -556.375 1010.1875 C-555.68514232 1008.93660352 -554.99528228 1007.68570835 -554.30541992 1006.43481445 C-552.90240637 1003.89068021 -551.49951517 1001.34647853 -550.09667969 998.80224609 C-547.39405668 993.90086569 -544.69011553 989.0002128 -541.98608398 984.09960938 C-540.65987568 981.69607337 -539.3338782 979.29242124 -538.00805664 976.88867188 C-534.98200562 971.40263838 -531.95491482 965.91718985 -528.9230957 960.43434143 C-521.72917193 947.424383 -514.5722126 934.39670472 -507.5065918 921.31640625 C-502.74233077 912.50396886 -497.88290543 903.74707519 -493 895 C-485.10558606 880.8479029 -477.25428015 866.67648269 -469.55664062 852.41625977 C-466.08217048 845.98389583 -462.56593819 839.57728571 -459.00512695 833.19238281 C-455.1073288 826.20237767 -451.23953609 819.19592911 -447.375 812.1875 C-446.68514232 810.93660352 -445.99528228 809.68570835 -445.30541992 808.43481445 C-443.90240637 805.89068021 -442.49951517 803.34647853 -441.09667969 800.80224609 C-438.39405668 795.90086569 -435.69011553 791.0002128 -432.98608398 786.09960938 C-431.65987568 783.69607337 -430.3338782 781.29242124 -429.00805664 778.88867188 C-425.98200562 773.40263838 -422.95491482 767.91718985 -419.9230957 762.43434143 C-412.72838141 749.42295337 -405.57019715 736.39407171 -398.50439453 723.31201172 C-395.0462281 716.91488755 -391.54675733 710.54299322 -388.00488281 704.19189453 C-384.10710548 697.20208593 -380.23944824 690.1957698 -376.375 683.1875 C-375.68514232 681.93660352 -374.99528228 680.68570835 -374.30541992 679.43481445 C-372.90240637 676.89068021 -371.49951517 674.34647853 -370.09667969 671.80224609 C-367.39405668 666.90086569 -364.69011553 662.0002128 -361.98608398 657.09960938 C-360.65987568 654.69607337 -359.3338782 652.29242124 -358.00805664 649.88867188 C-354.98200562 644.40263838 -351.95491482 638.91718985 -348.9230957 633.43434143 C-341.72838141 620.42295337 -334.57019715 607.39407171 -327.50439453 594.31201172 C-324.0462281 587.91488755 -320.54675733 581.54299322 -317.00488281 575.19189453 C-313.10710548 568.20208593 -309.23944824 561.1957698 -305.375 554.1875 C-304.68514232 552.93660352 -303.99528228 551.68570835 -303.30541992 550.43481445 C-301.90240637 547.89068021 -300.49951517 545.34647853 -299.09667969 542.80224609 C-296.39405668 537.90086569 -293.69011553 533.0002128 -290.98608398 528.09960938 C-289.65987568 525.69607337 -288.3338782 523.29242124 -287.00805664 520.88867188 C-283.98200562 515.40263838 -280.95491482 509.91718985 -277.9230957 504.43434143 C-270.72838141 491.42295337 -263.57019715 478.39407171 -256.50439453 465.31201172 C-253.0462281 458.91488755 -249.54675733 452.54299322 -246.00488281 446.19189453 C-242.10710548 439.20208593 -238.23944824 432.1957698 -234.375 425.1875 C-233.68514232 423.93660352 -232.99528228 422.68570835 -232.30541992 421.43481445 C-230.90240637 418.89068021 -229.49951517 416.34647853 -228.09667969 413.80224609 C-225.39405668 408.90086569 -222.69011553 404.0002128 -219.98608398 399.09960938 C-218.65987568 396.69607337 -217.3338782 394.29242124 -216.00805664 391.88867188 C-212.98200562 386.40263838 -209.95491482 380.91718985 -206.9230957 375.43434143 C-199.72838141 362.42295337 -192.57019715 349.39407171 -185.50439453 336.31201172 C-182.0462281 329.91488755 -178.54675733 323.54299322 -175.00488281 317.19189453 C-171.10710548 310.20208593 -167.23944824 303.1957698 -163.375 296.1875 C-162.68514232 294.93660352 -161.99528228 293.68570835 -161.30541992 292.43481445 C-159.90240637 289.89068021 -158.49951517 287.34647853 -157.09667969 284.80224609 C-154.39405668 279.90086569 -151.69011553 275.0002128 -148.98608398 270.09960938 C-147.65987568 267.69607337 -146.3338782 265.29242124 -145.00805664 262.88867188 C-141.98200562 257.40263838 -138.95491482 251.91718985 -135.9230957 246.43434143 C-128.72838141 233.42295337 -121.57019715 220.39407171 -114.50439453 207.31201172 C-111.0462281 200.91488755 -107.54675733 194.54299322 -104.00488281 188.19189453 C-100.10710548 181.20208593 -96.23944824 174.1957698 -92.375 167.1875 C-91.68514232 165.93660352 -90.99528228 164.68570835 -90.30541992 163.43481445 C-88.90240637 160.89068021 -87.49951517 158.34647853 -86.09667969 155.80224609 C-83.39405668 150.90086569 -80.69011553 146.0002128 -77.98608398 141.09960938 C-76.65987568 138.69607337 -75.3338782 136.29242124 -74.00805664 133.88867188 C-70.98200562 128.40263838 -67.95491482 122.91718985 -64.9230957 117.43434143 C-57.72838141 104.42295337 -50.57019715 91.39407171 -43.50439453 78.31201172 C-40.04856751 71.91921513 -36.55270501 65.55091596 -33.01147461 59.20507812 C-30.42058735 54.56112224 -27.84492059 49.9090336 -25.28125 45.25 C-16.94967503 30.1114303 -8.54563671 15.01926743 0 0 Z " fill="#000000" transform="translate(878,346)"/>
<path d="M0 0 C2.64609475 3.17559667 4.84434081 6.27842048 6.77734375 9.9296875 C7.53688354 11.35124146 7.53688354 11.35124146 8.31176758 12.80151367 C8.84825928 13.81576416 9.38475098 14.83001465 9.9375 15.875 C14.30339146 24.03415646 18.73365003 32.14586359 23.3125 40.1875 C28.23168393 48.83969229 33.07527864 57.5311859 37.875 66.25 C38.55427714 67.48364448 39.23355774 68.71728706 39.9128418 69.95092773 C40.24950363 70.56234116 40.58616547 71.17375458 40.93302917 71.80369568 C41.2696608 72.4150386 41.60629242 73.02638153 41.953125 73.65625 C42.28987747 74.26787491 42.62662994 74.87949982 42.97358704 75.50965881 C51.82278594 91.57613402 60.76311323 107.59206082 69.7331543 123.59130859 C75.88852137 134.57507518 81.99941219 145.58343419 88.10888672 156.59277344 C91.23745052 162.22951968 94.36886077 167.8646841 97.5 173.5 C98.75001382 175.74999232 100.00001382 177.99999232 101.25 180.25 C102.178125 181.920625 102.178125 181.920625 103.125 183.625 C138.75 247.75 138.75 247.75 140.62548828 251.12597656 C141.87375009 253.37278279 143.12212224 255.61952773 144.37060547 257.86621094 C147.52311379 263.53957447 150.67361316 269.21403722 153.8203125 274.890625 C159.65293284 285.40831798 165.50261111 295.91462069 171.4375 306.375 C177.3546037 316.80749992 183.1521153 327.30405584 188.9364624 337.8104248 C189.27325012 338.42212524 189.61003784 339.03382568 189.95703125 339.6640625 C190.2939801 340.27608521 190.63092896 340.88810791 190.97808838 341.51867676 C194.49073079 347.8960578 198.0246778 354.26155676 201.5625 360.625 C202.17722168 361.73069336 202.79194336 362.83638672 203.42529297 363.97558594 C204.66378823 366.20286149 205.90239475 368.43007518 207.14111328 370.65722656 C210.26258349 376.2704614 213.3811369 381.8853163 216.5 387.5 C217.74998618 389.75000768 218.99998618 392.00000768 220.25 394.25 C222.75 398.75 225.25 403.25 227.75 407.75 C228.36987793 408.86560303 228.98975586 409.98120605 229.62841797 411.13061523 C230.86763389 413.36155953 232.10624918 415.59283758 233.34423828 417.82446289 C236.27553382 423.10674869 239.2129451 428.38535954 242.17169189 433.65231323 C243.57166166 436.14530346 244.96821466 438.64019975 246.36450195 441.13525391 C247.03222626 442.3261553 247.70163059 443.51611646 248.37280273 444.70507812 C249.30223909 446.35178926 250.22547856 448.00199339 251.1484375 449.65234375 C251.94000244 451.05987915 251.94000244 451.05987915 252.74755859 452.49584961 C253.85972963 454.71954129 254.45074002 456.59899978 255 459 C223.5964157 455.93032843 192.21636353 452.63808561 160.84044456 449.29935837 C152.56674058 448.41900709 144.29260553 447.5429582 136.01785129 446.67253196 C130.10314468 446.05001379 124.18895235 445.42275576 118.27512318 444.79195702 C114.77645127 444.41889231 111.27759537 444.04783759 107.77816582 443.68194199 C103.91313919 443.27770211 100.049198 442.86365185 96.18530273 442.44873047 C95.04836472 442.33129486 93.9114267 442.21385925 92.74003601 442.09286499 C78.2538746 440.51561645 78.2538746 440.51561645 75.20239258 436.82714844 C74.77079834 435.9302832 74.3392041 435.03341797 73.89453125 434.109375 C73.39284424 433.10205322 72.89115723 432.09473145 72.37426758 431.05688477 C71.85888428 429.96561279 71.34350098 428.87434082 70.8125 427.75 C69.66876681 425.44036507 68.52289576 423.1317877 67.375 420.82421875 C66.52228516 419.08664307 66.52228516 419.08664307 65.65234375 417.31396484 C63.33118014 412.65860508 60.83655487 408.11007905 58.3125 403.5625 C53.1019718 394.09716348 48.04235035 384.55552417 43 375 C38.05721813 365.63461521 33.1013205 356.28036837 28 347 C22.49052776 336.97711829 17.1519578 326.8665077 11.81347656 316.75195312 C7.26498804 308.13653649 2.69314712 299.53781566 -2 291 C-7.50947224 280.97711829 -12.8480422 270.8665077 -18.18652344 260.75195312 C-22.73501196 252.13653649 -27.30685288 243.53781566 -32 235 C-37.10132647 225.71962078 -42.05679159 216.36516818 -47 207 C-52.03055401 197.47066521 -57.07459467 187.95177995 -62.25 178.5 C-62.70721436 177.66154541 -63.16442871 176.82309082 -63.63549805 175.95922852 C-66.02618017 171.58085418 -68.43643412 167.21446219 -70.87277222 162.86129761 C-72.20397999 160.47615476 -73.5233812 158.08459746 -74.84094238 155.69189453 C-75.79096159 153.97639308 -76.75615826 152.26932457 -77.72167969 150.5625 C-78.58067871 148.99822266 -78.58067871 148.99822266 -79.45703125 147.40234375 C-79.97241455 146.47929443 -80.48779785 145.55624512 -81.01879883 144.60522461 C-82.19835479 141.47334063 -82.05717711 140.14871678 -81 137 C-79.74755859 134.44238281 -79.74755859 134.44238281 -78.1484375 131.703125 C-77.55216553 130.67493652 -76.95589355 129.64674805 -76.34155273 128.58740234 C-75.69259033 127.48605957 -75.04362793 126.3847168 -74.375 125.25 C-73.69624598 124.08701381 -73.01794942 122.92376052 -72.34008789 121.76025391 C-67.15642623 112.88368663 -61.87029412 104.06816389 -56.5625 95.26538086 C-51.67384956 87.15228783 -46.88248782 78.98596547 -42.12207031 70.79711914 C-37.82081399 63.39941816 -33.48044327 56.02591764 -29.11816406 48.6640625 C-25.94622905 43.30650499 -22.79167059 37.93920332 -19.65234375 32.5625 C-18.89429072 31.26521599 -18.13623407 29.96793409 -17.37817383 28.6706543 C-16.2672891 26.76935475 -15.15710785 24.86766502 -14.04940796 22.96450806 C-9.53070424 15.20092696 -4.88845954 7.5377325 0 0 Z " fill="#000000" transform="translate(1233,955)"/>
<path d="M0 0 C1.52840166 2.29260249 2.64837843 4.25878273 3.76489258 6.73583984 C4.10368942 7.48402985 4.44248627 8.23221985 4.79154968 9.00308228 C5.33752556 10.21972061 5.33752556 10.21972061 5.89453125 11.4609375 C6.27797195 12.30981537 6.66141266 13.15869324 7.05647278 14.03329468 C8.31110183 16.81268982 9.56185983 19.59380798 10.8125 22.375 C11.68323591 24.30640306 12.55416822 26.23771759 13.42529297 28.16894531 C15.95404785 33.7775668 18.47772836 39.3884605 21 45 C21.32711975 45.72747437 21.6542395 46.45494873 21.99127197 47.20446777 C25.71360152 55.4825256 29.42402206 63.76588461 33.12878418 72.05181885 C34.74402391 75.66375923 36.36039028 79.27519554 37.9765625 82.88671875 C40.11762908 87.67131572 42.25842493 92.45603325 44.39819336 97.24121094 C47.75836032 104.75543072 51.11972202 112.26910358 54.48721313 119.78004456 C56.01974951 123.19841673 57.55146243 126.61715761 59.08312988 130.03591919 C59.80643729 131.64976937 60.53013672 133.26344393 61.25427246 134.87692261 C63.21109147 139.23718081 65.15689516 143.60205994 67.0927124 147.97167969 C67.99824202 149.99606988 68.9243771 152.01001753 69.85400391 154.0234375 C70.41995874 155.27587798 70.98556963 156.52847395 71.55078125 157.78125 C72.29775269 159.40643555 72.29775269 159.40643555 73.05981445 161.06445312 C74.35176169 165.0983076 73.78609447 167.38784015 71.96289062 171.12695312 C71.53169922 171.83787109 71.10050781 172.54878906 70.65625 173.28125 C70.16092773 174.10761963 69.66560547 174.93398926 69.15527344 175.78540039 C68.33591309 177.1291272 68.33591309 177.1291272 67.5 178.5 C66.30653423 180.48782669 65.11386608 182.47613242 63.921875 184.46484375 C63.28443359 185.52429199 62.64699219 186.58374023 61.99023438 187.67529297 C58.89682722 192.84286149 55.85609751 198.04101591 52.81591797 203.23999023 C51.37471527 205.70416296 49.9315272 208.16717057 48.48840332 210.63021851 C47.38855821 212.50743384 46.28898166 214.38480626 45.18945312 216.26220703 C41.27592516 222.94386667 37.35898183 229.62352493 33.44262695 236.30352783 C32.38360427 238.10989106 31.32460524 239.91626814 30.265625 241.72265625 C29.91580566 242.31937134 29.56598633 242.91608643 29.20556641 243.53088379 C26.30647227 248.47645606 23.40915867 253.42307017 20.51200867 258.36978149 C17.67985171 263.20497474 14.84467597 268.03839149 12.00801086 272.87094116 C9.72804344 276.75601031 7.45494519 280.64504535 5.18359375 284.53515625 C4.01840853 286.52354262 2.85305409 288.51182983 1.6875 290.5 C1.16639648 291.39581787 0.64529297 292.29163574 0.10839844 293.21459961 C-0.37725586 294.04096924 -0.86291016 294.86733887 -1.36328125 295.71875 C-1.77876221 296.42966797 -2.19424316 297.14058594 -2.62231445 297.87304688 C-4.25384261 300.39189736 -6.09534723 302.68309899 -8 305 C-13.07659959 295.05600819 -17.8728526 285.03731741 -22.35400391 274.81152344 C-24.06682874 270.90422358 -25.7937074 267.00313408 -27.51953125 263.1015625 C-27.88164703 262.28230286 -28.24376282 261.46304321 -28.61685181 260.61895752 C-32.85149346 251.05229047 -37.1768886 241.52692151 -41.5 232 C-48.24805766 217.12265337 -54.94223964 202.22291805 -61.53686523 187.27685547 C-64.37681934 180.84758325 -67.24047497 174.4383446 -70.25 168.0859375 C-70.73138428 167.06274414 -71.21276855 166.03955078 -71.70874023 164.98535156 C-72.57487807 163.15529369 -73.45346364 161.33104307 -74.34790039 159.51464844 C-74.71906982 158.72864258 -75.09023926 157.94263672 -75.47265625 157.1328125 C-75.79500244 156.47168457 -76.11734863 155.81055664 -76.44946289 155.12939453 C-77.8282969 149.79627249 -75.34329503 145.19902543 -72.97265625 140.51953125 C-72.66484726 139.90720139 -72.35703827 139.29487152 -72.03990173 138.66398621 C-71.05489521 136.70961358 -70.05877691 134.76114679 -69.0625 132.8125 C-68.42833651 131.55569148 -67.7948682 130.29853193 -67.16210938 129.04101562 C-63.58878334 121.96307155 -59.92276394 114.9360752 -56.21875 107.92578125 C-51.0379532 98.11925964 -45.99010609 88.24695748 -40.95877075 78.36309814 C-38.33754987 73.21446485 -35.71162414 68.06823191 -33.0859375 62.921875 C-32.56550369 61.90167267 -32.04506989 60.88147034 -31.50886536 59.83035278 C-22.58710475 42.34613131 -13.65597307 24.86302358 -4.5 7.5 C-4.14365479 6.82275879 -3.78730957 6.14551758 -3.42016602 5.44775391 C-1.12388296 1.12388296 -1.12388296 1.12388296 0 0 Z " fill="#000000" transform="translate(891,936)"/>
<path d="M0 0 C2.28639359 2.85160656 3.86052795 5.61479588 5.3203125 8.9609375 C5.76431396 9.9701123 6.20831543 10.97928711 6.66577148 12.01904297 C7.14731689 13.12650879 7.6288623 14.23397461 8.125 15.375 C8.91925241 17.18189011 9.71353876 18.98876554 10.50883484 20.79519653 C11.08177658 22.09692101 11.65411674 23.3989104 12.22590637 24.70114136 C15.56174818 32.29450576 18.95239597 39.86324904 22.34320068 47.43218994 C23.44564908 49.89319122 24.54738444 52.35451057 25.64892578 54.81591797 C30.4435794 65.52890977 35.24387041 76.2393707 40.04663086 86.94873047 C42.71719362 92.90451915 45.38616884 98.86101001 48.05140686 104.81918335 C48.77030477 106.42597776 49.48957686 108.0326048 50.20921326 109.6390686 C52.03284829 113.71159644 53.84969917 117.78689381 55.65258789 121.86865234 C58.71026124 128.77453501 61.78119085 135.65484841 65.16427612 142.40875244 C66.47420514 145.02594363 67.75226686 147.65813788 69.02929688 150.29150391 C69.90877952 152.0670186 70.83844798 153.81739908 71.76953125 155.56640625 C75.48211059 163.25938782 75.48211059 163.25938782 74.10327148 168.23754883 C72.59040551 171.32934792 70.91153065 174.14031809 69 177 C68.03126953 178.69962891 68.03126953 178.69962891 67.04296875 180.43359375 C66.43066406 181.42488281 65.81835938 182.41617188 65.1875 183.4375 C60.70470937 190.7825326 56.34545255 198.19821992 52 205.625 C51.26134353 206.88665592 50.52265506 208.14829311 49.78393555 209.40991211 C48.27362195 211.98956839 46.76366711 214.56943426 45.25390625 217.14941406 C42.02343476 222.66923711 38.7883073 228.18633 35.55334473 233.70352173 C33.79063558 236.70982023 32.02809978 239.71622034 30.265625 242.72265625 C29.91578552 243.31940659 29.56594604 243.91615692 29.20550537 244.5309906 C26.30640881 249.47655967 23.40899981 254.42311622 20.51200867 259.36991882 C18.71685712 262.43486243 16.92071884 265.49921961 15.12231445 268.56225586 C14.60310677 269.44659554 14.60310677 269.44659554 14.07341003 270.34880066 C13.38497928 271.5213578 12.69651328 272.69389424 12.00801086 273.8664093 C9.72236562 277.76146261 7.45069775 281.66444486 5.18359375 285.5703125 C4.01830244 287.56775108 2.85294198 289.56514933 1.6875 291.5625 C1.16639648 292.46669678 0.64529297 293.37089355 0.10839844 294.30249023 C-0.37725586 295.13208252 -0.86291016 295.9616748 -1.36328125 296.81640625 C-1.77876221 297.53256104 -2.19424316 298.24871582 -2.62231445 298.98657227 C-4.18878156 301.27589607 -5.98996529 303.09585511 -8 305 C-12.85752071 294.62464957 -17.67229089 284.23057397 -22.4375 273.8125 C-22.77937347 273.06533722 -23.12124695 272.31817444 -23.47348022 271.54837036 C-28.9930197 259.4769839 -34.41805327 247.36580621 -39.79034424 235.22827148 C-44.99426469 223.47263872 -50.26622514 211.74928295 -55.57617188 200.04116821 C-56.79918847 197.34187955 -58.01928181 194.64129048 -59.23828125 191.94018555 C-60.02338697 190.20098631 -60.80854237 188.46180949 -61.59375 186.72265625 C-61.97273437 185.88318954 -62.35171875 185.04372284 -62.7421875 184.17881775 C-64.7546184 179.72866449 -66.78658197 175.28871739 -68.85054016 170.86222839 C-70.1835054 167.99714613 -71.4954695 165.12243461 -72.8125 162.25 C-73.28083252 161.26942627 -73.74916504 160.28885254 -74.23168945 159.27856445 C-77.1219234 152.90899328 -77.1219234 152.90899328 -76.60546875 149.05859375 C-75.81076172 147.54458984 -75.81076172 147.54458984 -75 146 C-74.62206299 145.20835449 -74.24412598 144.41670898 -73.85473633 143.60107422 C-72.44410504 140.64970361 -70.97704673 137.73115926 -69.5 134.8125 C-69.02046875 133.85408203 -68.5409375 132.89566406 -68.046875 131.90820312 C-64.876224 125.60367414 -61.61334261 119.35239407 -58.31640625 113.11328125 C-53.1036879 103.24459439 -48.02263387 93.31087524 -42.95959473 83.36474609 C-40.33415304 78.20777137 -37.70409402 73.0531523 -35.07421875 67.8984375 C-34.55316559 66.87699646 -34.03211243 65.85555542 -33.49526978 64.80316162 C-22.44294743 43.1437377 -11.28469704 21.539297 0 0 Z " fill="#000000" transform="translate(1058,649)"/>
</svg>
